<mxfile host="app.diagrams.net" modified="2023-09-29T16:47:47.325Z" agent="Mozilla/5.0 (X11; Linux x86_64; rv:103.0) Gecko/20100101 Firefox/103.0" version="21.8.0" etag="XGECIlrjMt58QJ-Oh63T" type="github">
  <diagram name="PÃ¡gina-1" id="SXuxdhwKVZhRCUds6pyb">
    <mxGraphModel>
      <root>
        <mxCell id="0" />
        <mxCell id="1" parent="0" />
      </root>
    </mxGraphModel>
  </diagram>
</mxfile>
